<svg id="visual" viewBox="0 0 900 600" width="900" height="600" xmlns="http://www.w3.org/2000/svg" xmlns:xlink="http://www.w3.org/1999/xlink" version="1.1"><path d="M0 127L82 103L164 103L245 91L327 55L409 79L491 55L573 67L655 43L736 91L818 109L900 109L900 0L818 0L736 0L655 0L573 0L491 0L409 0L327 0L245 0L164 0L82 0L0 0Z" fill="#170d0d"></path><path d="M0 271L82 175L164 163L245 223L327 157L409 187L491 169L573 211L655 211L736 157L818 199L900 169L900 107L818 107L736 89L655 41L573 65L491 53L409 77L327 53L245 89L164 101L82 101L0 125Z" fill="#371618"></path><path d="M0 319L82 271L164 259L245 283L327 241L409 271L491 229L573 307L655 283L736 217L818 265L900 205L900 167L818 197L736 155L655 209L573 209L491 167L409 185L327 155L245 221L164 161L82 173L0 269Z" fill="#591a20"></path><path d="M0 499L82 463L164 391L245 499L327 355L409 451L491 379L573 409L655 499L736 379L818 409L900 325L900 203L818 263L736 215L655 281L573 305L491 227L409 269L327 239L245 281L164 257L82 269L0 317Z" fill="#7c1b27"></path><path d="M0 601L82 601L164 601L245 601L327 601L409 601L491 601L573 601L655 601L736 601L818 601L900 601L900 323L818 407L736 377L655 497L573 407L491 377L409 449L327 353L245 497L164 389L82 461L0 497Z" fill="#a11a2d"></path></svg>