<svg id="visual" viewBox="0 0 900 600" width="900" height="600" xmlns="http://www.w3.org/2000/svg" xmlns:xlink="http://www.w3.org/1999/xlink" version="1.1"><rect x="0" y="0" width="900" height="600" fill="#0e0808"></rect><defs><linearGradient id="grad1_0" x1="33.3%" y1="100%" x2="100%" y2="0%"><stop offset="20%" stop-color="#ff3131" stop-opacity="1"></stop><stop offset="80%" stop-color="#ff3131" stop-opacity="1"></stop></linearGradient></defs><defs><linearGradient id="grad1_1" x1="33.3%" y1="100%" x2="100%" y2="0%"><stop offset="20%" stop-color="#ff3131" stop-opacity="1"></stop><stop offset="80%" stop-color="#aa262d" stop-opacity="1"></stop></linearGradient></defs><defs><linearGradient id="grad1_2" x1="33.3%" y1="100%" x2="100%" y2="0%"><stop offset="20%" stop-color="#591c1f" stop-opacity="1"></stop><stop offset="80%" stop-color="#aa262d" stop-opacity="1"></stop></linearGradient></defs><defs><linearGradient id="grad1_3" x1="33.3%" y1="100%" x2="100%" y2="0%"><stop offset="20%" stop-color="#591c1f" stop-opacity="1"></stop><stop offset="80%" stop-color="#0e0808" stop-opacity="1"></stop></linearGradient></defs><defs><linearGradient id="grad2_0" x1="0%" y1="100%" x2="66.7%" y2="0%"><stop offset="20%" stop-color="#ff3131" stop-opacity="1"></stop><stop offset="80%" stop-color="#ff3131" stop-opacity="1"></stop></linearGradient></defs><defs><linearGradient id="grad2_1" x1="0%" y1="100%" x2="66.7%" y2="0%"><stop offset="20%" stop-color="#aa262d" stop-opacity="1"></stop><stop offset="80%" stop-color="#ff3131" stop-opacity="1"></stop></linearGradient></defs><defs><linearGradient id="grad2_2" x1="0%" y1="100%" x2="66.7%" y2="0%"><stop offset="20%" stop-color="#aa262d" stop-opacity="1"></stop><stop offset="80%" stop-color="#591c1f" stop-opacity="1"></stop></linearGradient></defs><defs><linearGradient id="grad2_3" x1="0%" y1="100%" x2="66.7%" y2="0%"><stop offset="20%" stop-color="#0e0808" stop-opacity="1"></stop><stop offset="80%" stop-color="#591c1f" stop-opacity="1"></stop></linearGradient></defs><g transform="translate(900, 600)"><path d="M-378.6 0C-354.8 -41 -330.9 -82.1 -316.9 -131.3C-302.9 -180.4 -298.6 -237.8 -267.7 -267.7C-236.8 -297.6 -179.2 -300.2 -130.1 -314.1C-81 -328 -40.5 -353.3 0 -378.6L0 0Z" fill="#331517"></path><path d="M-283.9 0C-266.1 -30.8 -248.2 -61.6 -237.7 -98.4C-227.1 -135.3 -224 -178.3 -200.8 -200.8C-177.6 -223.2 -134.4 -225.2 -97.6 -235.6C-60.8 -246 -30.4 -265 0 -283.9L0 0Z" fill="#812127"></path><path d="M-189.3 0C-177.4 -20.5 -165.5 -41 -158.4 -65.6C-151.4 -90.2 -149.3 -118.9 -133.8 -133.8C-118.4 -148.8 -89.6 -150.1 -65.1 -157.1C-40.5 -164 -20.3 -176.7 0 -189.3L0 0Z" fill="#d42b30"></path><path d="M-94.6 0C-88.7 -10.3 -82.7 -20.5 -79.2 -32.8C-75.7 -45.1 -74.7 -59.4 -66.9 -66.9C-59.2 -74.4 -44.8 -75.1 -32.5 -78.5C-20.3 -82 -10.1 -88.3 0 -94.6L0 0Z" fill="#ff3131"></path></g><g transform="translate(0, 0)"><path d="M378.6 0C379.1 55 379.7 110.1 349.8 144.9C319.8 179.7 259.4 194.3 219.9 219.9C180.4 245.5 161.8 282.1 128.6 310.4C95.4 338.7 47.7 358.6 0 378.6L0 0Z" fill="#331517"></path><path d="M283.9 0C284.4 41.3 284.8 82.5 262.3 108.7C239.9 134.8 194.6 145.7 164.9 164.9C135.3 184.1 121.3 211.6 96.4 232.8C71.6 254 35.8 269 0 283.9L0 0Z" fill="#812127"></path><path d="M189.3 0C189.6 27.5 189.8 55 174.9 72.4C159.9 89.8 129.7 97.1 110 110C90.2 122.8 80.9 141.1 64.3 155.2C47.7 169.4 23.9 179.3 0 189.3L0 0Z" fill="#d42b30"></path><path d="M94.6 0C94.8 13.8 94.9 27.5 87.4 36.2C80 44.9 64.9 48.6 55 55C45.1 61.4 40.4 70.5 32.1 77.6C23.9 84.7 11.9 89.7 0 94.6L0 0Z" fill="#ff3131"></path></g></svg>